<svg width="62" height="60" viewBox="0 0 62 60" fill="none" xmlns="http://www.w3.org/2000/svg">
<path fill-rule="evenodd" clip-rule="evenodd" d="M59.6912 18.5487C57.3784 13.9098 53.3462 10.6162 48.3376 9.27411C44.4031 8.21987 40.2931 8.83598 36.4522 11.0557C35.8215 11.4202 35.2034 11.8236 34.5998 12.264C34.9231 12.5751 35.237 12.9001 35.5409 13.2385C35.6134 13.3194 35.6853 13.4009 35.7565 13.483C36.777 13.5354 37.7935 13.6957 38.7985 13.965C43.8071 15.3071 47.8392 18.6007 50.1521 23.2396C52.3058 27.5592 52.7999 32.8031 51.5074 37.6268C49.9554 43.4189 46.6726 48.6661 41.75 53.2234C39.3474 55.4477 36.5529 57.5105 33.3986 59.3913C34.4594 58.9623 35.5422 58.4979 36.6368 57.996C42.4614 55.3251 47.391 52.1412 51.2891 48.5325C56.2117 43.9752 59.4945 38.728 61.0465 32.9359C62.339 28.1122 61.845 22.8683 59.6912 18.5487ZM26.2274 7.74791C24.9041 7.45257 23.5325 7.30619 22.1301 7.31645C19.3931 7.33647 16.7803 8.1046 14.4162 9.56545C12.5306 7.65489 10.2581 6.31766 7.69586 5.63111C5.23435 4.97156 2.74144 4.83816 0.32946 5.21264C1.09191 4.5065 1.90635 3.86391 2.76521 3.29554C7.0876 0.43457 12.2263 -0.40189 17.235 0.940185C20.9335 1.93119 24.0283 4.27798 26.2274 7.74791Z" fill="#9A68ED"/>
</svg>
